<svg width="40" height="40" viewBox="0 0 40 40" fill="none" xmlns="http://www.w3.org/2000/svg">
<path d="M20 40C31.0842 40 40 31.0853 40 20.0024C40 8.91954 31.0842 0 20 0C8.91578 0 0 8.91954 0 20.0024C0 31.0853 8.91578 40 20 40Z" fill="#2775CA"/>
<path fill-rule="evenodd" clip-rule="evenodd" d="M8.33061 15.918C5.91532 22.3354 9.25026 29.5852 15.7507 31.918C15.9976 32.0825 16.2493 32.4165 16.2445 32.6633V33.8297C16.2445 33.999 16.2445 34.0813 16.1622 34.1636C16.0799 34.4975 15.7459 34.6621 15.4119 34.4975C10.7459 33.0021 7.16411 29.4159 5.66362 24.7504C3.1612 16.8375 7.49325 8.42131 15.4119 5.91919C15.4942 5.83691 15.6636 5.83691 15.7459 5.83691C16.0799 5.91919 16.2445 6.17085 16.2445 6.50479V7.67115C16.2445 8.08737 16.0799 8.33903 15.7459 8.50358C12.3287 9.75222 9.5794 12.4189 8.33061 15.918ZM23.834 6.25313C23.9163 5.91919 24.2503 5.75464 24.5842 5.91919C29.168 7.41949 32.8321 11.0009 34.3325 15.7534C36.835 23.6663 32.5029 32.0825 24.5842 34.5846C24.502 34.6669 24.3325 34.6669 24.2503 34.6669C23.9163 34.5846 23.7517 34.333 23.7517 33.999V32.8327C23.7517 32.4165 23.9163 32.1648 24.2503 32.0002C27.6675 30.7516 30.4168 28.0849 31.6656 24.5859C34.0857 18.1684 30.7507 10.9186 24.2503 8.58586C24.0034 8.42131 23.7517 8.08737 23.7517 7.75343V6.58706C23.7517 6.41768 23.7517 6.3354 23.834 6.25313ZM20.2479 18.8364C23.7474 19.2526 25.4996 20.2496 25.4996 23.1679C25.4996 25.4183 23.8345 27.1655 21.3418 27.5914V29.5902C21.2595 30.0064 21.0078 30.258 20.6738 30.258H19.425C19.0088 30.1709 18.7571 29.9241 18.7571 29.5902V27.5914C16.0029 27.1752 14.6719 25.6749 14.3379 23.5938V23.5115C14.3379 23.1776 14.5847 22.9259 14.9187 22.9259H16.3321C16.5789 22.9259 16.8306 23.0905 16.9129 23.4244C17.1598 24.6779 17.91 25.5926 20.0785 25.5926C21.6612 25.5926 22.8277 24.6779 22.8277 23.3421C22.8277 22.0064 22.0775 21.5079 19.7445 21.0917C16.245 20.6755 14.5799 19.5914 14.5799 16.8424C14.5799 14.7565 16.1627 13.0917 18.6651 12.7577V10.8412C18.7474 10.425 18.9991 10.1733 19.3331 10.1733H20.5818C20.9981 10.2556 21.2498 10.5073 21.2498 10.8412V12.84C23.1665 13.0094 24.667 14.4226 25.001 16.2568V16.3391C25.001 16.6682 24.7493 16.9199 24.4153 16.9199H23.0843C22.8326 16.9199 22.5809 16.7553 22.4986 16.5036C22.0823 15.2502 21.2498 14.7517 19.7493 14.7517C18.0794 14.7517 17.2469 15.5018 17.2469 16.6682C17.2469 17.8346 17.7454 18.5024 20.2479 18.8364Z" fill="white"/>
</svg>
