<svg width="41" height="40" viewBox="0 0 41 40" fill="none" xmlns="http://www.w3.org/2000/svg">
<circle cx="21" cy="20" r="20" fill="#46FFF4"/>
<path d="M16.9059 28.75H14V23.9772C14 22.3409 15.301 21.0144 16.9059 21.0144V18.4317C15.301 18.4317 14 17.1052 14 15.4688V11.25H16.9059V18.4317H25.0941V11.25H28V28.75H25.0941V21.0144H16.9059V28.75Z" fill="#121417"/>
<path fill-rule="evenodd" clip-rule="evenodd" d="M9.27604 9.97502C14.7951 3.51752 24.504 2.75677 30.9615 8.27583C37.419 13.7949 38.1798 23.5038 32.6607 29.9613C27.1416 36.4188 17.4327 37.1796 10.9752 31.6605C9.81251 30.6668 8.83449 29.5372 8.04457 28.3152C7.27135 27.1191 8.29368 25.6369 9.55425 24.9739C10.2088 24.6296 10.8103 24.1578 11.3201 23.5613C13.473 21.0422 13.1763 17.2549 10.6572 15.1019C10.3807 14.8655 10 14.5 9.27604 14.1099C8.03098 13.439 7.59551 12.2315 8.42215 11.069C8.68784 10.6953 8.97244 10.3302 9.27604 9.97502ZM4.15393 14.2564C4.71901 13.9845 5.20744 13.5536 5.46533 12.982C6.11252 11.5476 6.97133 10.1797 8.04527 8.9231C14.1453 1.78587 24.8762 0.945043 32.0134 7.04506C39.1507 13.1451 39.9915 23.876 33.8915 31.0132C27.7915 38.1505 17.0605 38.9913 9.92331 32.8913C7.75655 31.0394 6.17009 28.7607 5.18197 26.2853C4.9493 25.7025 4.47953 25.2505 3.92653 24.9538C3.55337 24.7536 3.19583 24.5105 2.86072 24.2241C0.341701 22.0712 0.0449377 18.2838 2.19789 15.7647C2.75671 15.1109 3.42564 14.6068 4.15393 14.2564Z" fill="#121417"/>
<path d="M5.1875 20.8549L5.22396 21.1738L5.28125 20.8549L6.08854 17.5H6.90625L7.72396 20.8919L7.78125 21.2246L7.82812 20.8595L8.375 17.5H9.5L8.40104 22.5H7.35417L6.5 19.1543L6.48958 19.0943L6.47917 19.1497L5.64062 22.5H4.59896L3.5 17.5H4.61979L5.1875 20.8549Z" fill="white"/>
</svg>
