<svg width="40" height="40" viewBox="0 0 40 40" fill="none" xmlns="http://www.w3.org/2000/svg">
<path d="M20.0641 39.9998C31.0744 39.9998 39.9714 31.0456 39.936 19.9999C39.9006 8.95427 30.9463 0 19.9359 0C8.92563 0 0.02869 8.95427 0.064081 19.9999C0.099472 31.0456 9.05379 39.9998 20.0641 39.9998Z" fill="#50AF95"/>
<path d="M22.1553 18.085V15.5834H28.09V11.7646H11.9303V15.5834H17.865V18.085C13.0397 18.2982 9.41211 19.2221 9.41211 20.326C9.41211 21.4299 13.0397 22.3538 17.865 22.567V30.5882H22.1553V22.5622C26.9708 22.349 30.5886 21.4252 30.5886 20.3212C30.5886 19.2221 26.9708 18.2982 22.1553 18.085ZM22.1553 21.88C22.0326 21.8847 21.4141 21.9226 20.0249 21.9226C18.9155 21.9226 18.1399 21.8895 17.865 21.88V21.8847C13.6042 21.7047 10.4233 20.9893 10.4233 20.1317C10.4233 19.2742 13.6042 18.5588 17.865 18.374V21.1741C18.1448 21.193 18.9401 21.2404 20.0445 21.2404C21.3699 21.2404 22.0326 21.1883 22.1553 21.1788V18.3835C26.4112 18.5682 29.5823 19.2836 29.5823 20.1365C29.5823 20.9845 26.4063 21.7 22.1553 21.88Z" fill="white"/>
</svg>
