<svg width="40" height="40" viewBox="0 0 40 40" fill="none" xmlns="http://www.w3.org/2000/svg">
<path d="M20 40C31.0457 40 40 31.0457 40 20C40 8.95431 31.0457 0 20 0C8.95431 0 0 8.95431 0 20C0 31.0457 8.95431 40 20 40Z" fill="#E9E9E9"/>
<path d="M26.3502 19.9379C25.7064 19.4526 24.7892 19.2585 24.7892 19.2585C24.7892 19.2585 25.5653 18.8081 25.8825 18.3581C26.2 17.908 26.3587 17.2106 26.3852 16.8488C26.4116 16.4867 26.4734 14.9688 25.2917 14.0951C24.3776 13.4191 23.3301 13.1507 21.9235 13.0634V10H20.0365V13.0272H18.5992V10H16.7123V13.0272H13V14.9887H14.0912C14.3886 14.9887 14.9177 15.0218 15.1425 15.2736C15.3674 15.525 15.4071 15.6575 15.4071 16.1471L15.4072 23.9628C15.4072 24.1481 15.3719 24.3774 15.2131 24.5276C15.0545 24.6777 14.8958 24.7128 14.5165 24.7128H13.388L13 26.9813H16.7123V30H18.5992V26.9813H20.0366V30H21.9236V26.9316C22.4114 26.903 22.8662 26.8661 23.1315 26.8313C23.6695 26.7608 24.8862 26.6196 26.024 25.8252C27.1613 25.0307 27.4168 23.7861 27.4434 22.5329C27.4702 21.2797 26.9934 20.4234 26.3502 19.9379ZM18.5992 15.1632C18.5992 15.1632 19.1987 15.1103 19.7895 15.119C20.3805 15.1277 20.9005 15.1454 21.6767 15.3838C22.4526 15.6222 22.9108 16.2048 22.9287 16.8932C22.9463 17.5817 22.6462 18.0405 22.1174 18.3318C21.5884 18.623 20.8569 18.7819 20.1688 18.8082C19.4811 18.8347 18.5992 18.8082 18.5992 18.8082V15.1632ZM22.8228 24.1921C22.3908 24.4306 21.5265 24.6423 20.689 24.704C19.8513 24.7658 18.5992 24.7394 18.5992 24.7394V20.688C18.5992 20.688 19.7984 20.6264 20.7332 20.688C21.6678 20.7501 22.4526 20.9882 22.8051 21.165C23.1578 21.3414 23.7752 21.7296 23.7752 22.6565C23.7752 23.5831 23.2546 23.9539 22.8228 24.1921Z" fill="#F7921A"/>
<path fill-rule="evenodd" clip-rule="evenodd" d="M9.83617 8.50087C12.5432 6.10639 16.102 4.65299 20.0002 4.65299C23.8984 4.65299 27.4571 6.10632 30.1641 8.5007L31.1675 7.49723C28.2027 4.84731 24.2896 3.23633 20.0002 3.23633C15.7107 3.23633 11.7975 4.84738 8.83271 7.49741L9.83617 8.50087ZM8.50055 9.83654L7.49708 8.83307C4.84725 11.7979 3.23633 15.7109 3.23633 20.0002C3.23633 24.2896 4.84731 28.2027 7.49723 31.1675L8.5007 30.1641C6.10632 27.4571 4.65299 23.8984 4.65299 20.0002C4.65299 16.1021 6.10626 12.5435 8.50055 9.83654ZM9.83635 31.4997L8.83288 32.5032C11.7977 35.1531 15.7108 36.7641 20.0002 36.7641C24.2895 36.7641 28.2026 35.1532 31.1674 32.5034L30.1639 31.4999C27.4569 33.8942 23.8983 35.3474 20.0002 35.3474C16.1021 35.3474 12.5433 33.8941 9.83635 31.4997ZM31.4996 30.1643L32.503 31.1677C35.1531 28.2029 36.7641 24.2897 36.7641 20.0002C36.7641 15.7108 35.1531 11.7977 32.5032 8.83288L31.4997 9.83635C33.8941 12.5433 35.3474 16.1021 35.3474 20.0002C35.3474 23.8985 33.894 27.4572 31.4996 30.1643Z" fill="#61666A"/>
</svg>
