<svg width="40" height="40" viewBox="0 0 40 40" fill="none" xmlns="http://www.w3.org/2000/svg">
<path d="M20 40C31.0457 40 40 31.0457 40 20C40 8.9543 31.0457 0 20 0C8.9543 0 0 8.9543 0 20C0 31.0457 8.9543 40 20 40Z" fill="#E9E9E9"/>
<path d="M20.0039 5V16.0875L10.6327 20.275L20.0039 5Z" fill="#AFB1B3"/>
<path d="M20.0025 5L29.375 20.275L20.0025 16.0875V5Z" fill="#61666A"/>
<path d="M20.0039 27.46V34.9938L10.6264 22.02L20.0039 27.46Z" fill="#AFB1B3"/>
<path d="M20.0025 34.9938V27.4588L29.375 22.02L20.0025 34.9938Z" fill="#61666A"/>
<path d="M20.0039 25.7161L10.6327 20.2748L20.0039 16.0898V25.7161Z" fill="#61666A"/>
<path d="M29.375 20.2748L20.0025 25.7161V16.0898L29.375 20.2748Z" fill="#272E34"/>
</svg>
